name C:\Users\u0101727\Documents\MyRepositories\upper-imu-dc\Results\main_tracking\Case_45\kinematics_filtered.mot
datacolumns 10
datarows 47
range 0.50000000 0.77600000
endheader 
time	clav_prot	clav_elev	scapula_abduction	scapula_elevation	scapula_upward_rot	scapula_winging	plane_elv	shoulder_elv	axial_rot	
          0.50000000	        -23.86134047	         -6.29007838	        -14.93658958	         -4.84337259	         10.30057999	          6.74649893	        -30.24642122	         13.36547639	         45.95816209	
          0.50600000	        -23.77422872	         -6.30352869	        -14.90458811	         -4.86492144	         10.31517125	          6.75140632	        -29.86454747	         13.39092670	         45.65201325	
          0.51200000	        -23.69043692	         -6.31821434	        -14.87280311	         -4.88724838	         10.33014141	          6.75655396	        -29.46749940	         13.41726378	         45.33435814	
          0.51800000	        -23.61264673	         -6.33424167	        -14.84193157	         -4.91017132	         10.34533230	          6.76191574	        -29.05806609	         13.44427345	         45.00763706	
          0.52400000	        -23.54261718	         -6.35163592	        -14.81247878	         -4.93352736	         10.36060130	          6.76746892	        -28.63867066	         13.47176657	         44.67401488	
          0.53000000	        -23.48129807	         -6.37035505	        -14.78478181	         -4.95717545	         10.37582545	          6.77319373	        -28.21133610	         13.49958321	         44.33534791	
          0.53600000	        -23.42901421	         -6.39030988	        -14.75904694	         -4.98099757	         10.39090440	          6.77907284	        -27.77767639	         13.52759548	         43.99316932	
          0.54200000	        -23.38562625	         -6.41138088	        -14.73538117	         -5.00489890	         10.40576238	          6.78509063	        -27.33890633	         13.55570914	         43.64868840	
          0.54800000	        -23.35066723	         -6.43343190	        -14.71381798	         -5.02880712	         10.42034922	          6.79123251	        -26.89586483	         13.58386444	         43.30279944	
          0.55400000	        -23.32345541	         -6.45632092	        -14.69433779	         -5.05267112	         10.43464058	          6.79748425	        -26.44904707	         13.61203618	         42.95609688	
          0.56000000	        -23.30318523	         -6.47990823	        -14.67688382	         -5.07645930	         10.44863735	          6.80383143	        -25.99864194	         13.64023346	         42.60889437	
          0.56600000	        -23.28899808	         -6.50406231	        -14.66137422	         -5.10015757	         10.46236449	          6.81025890	        -25.54457190	         13.66849902	         42.26124575	
          0.57200000	        -23.28003571	         -6.52866372	        -14.64771088	         -5.12376708	         10.47586934	          6.81675044	        -25.08653309	         13.69690832	         41.91296678	
          0.57800000	        -23.27547847	         -6.55360737	        -14.63578583	         -5.14730197	         10.48921964	          6.82328842	        -24.62403428	         13.72556855	         41.56365685	
          0.58400000	        -23.27457107	         -6.57880340	        -14.62548557	         -5.17078709	         10.50250118	          6.82985359	        -24.15643346	         13.75461726	         41.21272037	
          0.59000000	        -23.27663812	         -6.60417710	        -14.61669400	         -5.19425568	         10.51581553	          6.83642494	        -23.68297165	         13.78422093	         40.85938769	
          0.59600000	        -23.28109165	         -6.62966790	        -14.60929412	         -5.21774725	         10.52927754	          6.84297951	        -23.20280341	         13.81457326	         40.50273568	
          0.60200000	        -23.28743249	         -6.65522792	        -14.60316902	         -5.24130556	         10.54301304	          6.84949240	        -22.71502418	         13.84589317	         40.14170826	
          0.60800000	        -23.29524710	         -6.68082004	        -14.59820223	         -5.26497673	         10.55715657	          6.85593667	        -22.21869441	         13.87842258	         39.77513698	
          0.61400000	        -23.30420133	         -6.70641591	        -14.59427771	         -5.28880760	         10.57184929	          6.86228332	        -21.71286068	         13.91242390	         39.40176205	
          0.62000000	        -23.31403215	         -6.73199374	        -14.59127946	         -5.31284421	         10.58723704	          6.86850134	        -21.19657413	         13.94817717	         39.02025380	
          0.62600000	        -23.32453823	         -6.75753632	        -14.58909096	         -5.33713057	         10.60346857	          6.87455770	        -20.66890635	         13.98597707	         38.62923478	
          0.63200000	        -23.33557013	         -6.78302914	        -14.58759449	         -5.36170756	         10.62069390	          6.88041748	        -20.12896306	         14.02612959	         38.22730231	
          0.63800000	        -23.34702056	         -6.80845871	        -14.58667018	         -5.38661208	         10.63906281	          6.88604395	        -19.57589582	         14.06894866	         37.81305148	
          0.64400000	        -23.35881514	         -6.83381120	        -14.58619526	         -5.41187639	         10.65872343	          6.89139886	        -19.00891192	         14.11475255	         37.38509824	
          0.65000000	        -23.37090391	         -6.85907139	        -14.58604311	         -5.43752762	         10.67982085	          6.89644258	        -18.42728271	         14.16386033	         36.94210240	
          0.65600000	        -23.38325377	         -6.88422193	        -14.58608261	         -5.46358749	         10.70249581	          6.90113456	        -17.83035039	         14.21658839	         36.48279003	
          0.66200000	        -23.39584195	         -6.90924286	        -14.58617754	         -5.49007215	         10.72688338	          6.90543363	        -17.21753357	         14.27324698	         36.00597517	
          0.66800000	        -23.40865060	         -6.93411152	        -14.58618632	         -5.51699222	         10.75311165	          6.90929857	        -16.58833155	         14.33413701	         35.51058017	
          0.67400000	        -23.42166241	         -6.95880261	        -14.58596204	         -5.54435288	         10.78130045	          6.91268857	        -15.94232743	         14.39954708	         34.99565461	
          0.68000000	        -23.43485727	         -6.98328855	        -14.58535283	         -5.57215412	         10.81156004	          6.91556387	        -15.27919023	         14.46975073	         34.46039224	
          0.68600000	        -23.44820995	         -7.00753997	        -14.58420256	         -5.60039110	         10.84398991	          6.91788632	        -14.59867598	         14.54500413	         33.90414582	
          0.69200000	        -23.46168859	         -7.03152636	        -14.58235202	         -5.62905452	         10.87867757	          6.91962005	        -13.90062792	         14.62554405	         33.32643941	
          0.69800000	        -23.47525402	         -7.05521680	        -14.57964032	         -5.65813110	         10.91569750	          6.92073205	        -13.18497576	         14.71158627	         32.72697805	
          0.70400000	        -23.48885977	         -7.07858074	        -14.57590672	         -5.68760406	         10.95511016	          6.92119281	        -12.45173425	         14.80332437	         32.10565450	
          0.71000000	        -23.50245259	         -7.10158878	        -14.57099267	         -5.71745364	         10.99696123	          6.92097681	        -11.70100100	         14.90092897	         31.46255289	
          0.71600000	        -23.51597353	         -7.12421343	        -14.56474415	         -5.74765765	         11.04128098	          6.92006302	        -10.93295360	         15.00454743	         30.79794918	
          0.72200000	        -23.52935935	         -7.14642981	        -14.55701414	         -5.77819200	         11.08808388	          6.91843532	        -10.14784629	         15.11430391	         30.11230846	
          0.72800000	        -23.54254420	         -7.16821625	        -14.54766520	         -5.80903121	         11.13736847	          6.91608279	         -9.34600612	         15.23029988	         29.40627894	
          0.73400000	        -23.55546150	         -7.18955485	        -14.53657208	         -5.84014898	         11.18911749	          6.91299988	         -8.52782876	         15.35261505	         28.68068283	
          0.74000000	        -23.56804595	         -7.21043184	        -14.52362424	         -5.87151864	         11.24329826	          6.90918656	         -7.69377409	         15.48130858	         27.93650425	
          0.74600000	        -23.58023551	         -7.23083790	        -14.50872821	         -5.90311370	         11.29986340	          6.90464825	         -6.84436160	         15.61642072	         27.17487437	
          0.75200000	        -23.59197331	         -7.25076834	        -14.49180973	         -5.93490826	         11.35875182	          6.89939570	         -5.98016574	         15.75797459	         26.39705408	
          0.75800000	        -23.60320946	         -7.27022313	        -14.47281542	         -5.96687751	         11.41988997	          6.89344472	         -5.10181132	         15.90597830	         25.60441458	
          0.76400000	        -23.61390259	         -7.28920681	        -14.45171413	         -5.99899809	         11.48319341	          6.88681577	         -4.20996893	         16.06042708	         24.79841617	
          0.77000000	        -23.62402111	         -7.30772835	        -14.42849762	         -6.03124847	         11.54856852	          6.87953356	         -3.30535046	         16.22130566	         23.98058578	
          0.77600000	        -23.63354414	         -7.32580082	        -14.40318069	         -6.06360927	         11.61591450	          6.87162641	         -2.38870479	         16.38859048	         23.15249360	
